<svg xmlns="http://www.w3.org/2000/svg" viewBox="0 0 105.83 49.97"><title>logo-black</title><g id="Layer_2" data-name="Layer 2"><g id="Layer_1-2" data-name="Layer 1"><path d="M64,25a15.09,15.09,0,0,0,.54,4,13.94,13.94,0,0,0,1.55,3.6L58,38.2,51.33,43a11.14,11.14,0,0,0,2.16-3.1,15.16,15.16,0,0,0,1.26-3.71,16.28,16.28,0,0,0,.1-5.23A23.83,23.83,0,0,1,54.31,28a24.62,24.62,0,0,1-.18-3,24.08,24.08,0,0,1,2-9.73,25.86,25.86,0,0,1,5.37-8A25.12,25.12,0,0,1,90.67,2.77a25.19,25.19,0,0,1,8.68,7.53l-8.14,5.47-2.95,2.16a4.86,4.86,0,0,0,1-1.59,3.59,3.59,0,0,0,.25-1.54,2.53,2.53,0,0,0-.76-1.62,16.12,16.12,0,0,0-4.46-2.49,14.89,14.89,0,0,0-5.18-.9A14.72,14.72,0,0,0,73.21,11a15.39,15.39,0,0,0-4.78,3.25,15.19,15.19,0,0,0-3.24,4.83A14.81,14.81,0,0,0,64,25ZM105.83,8.5a6.77,6.77,0,0,0-1.73,2.08,12.93,12.93,0,0,0-1,2.92,12.66,12.66,0,0,0,0,4.43,25.09,25.09,0,0,1,1,7.05,24.59,24.59,0,0,1-7.31,17.64,25.94,25.94,0,0,1-8,5.37,25,25,0,0,1-21.21-.79A25.16,25.16,0,0,1,59,39.67l8.21-5.47,4.39-3A7.38,7.38,0,0,0,70,33.5a4.9,4.9,0,0,0-.39,2.1,2.91,2.91,0,0,0,1.33,2.11,14.43,14.43,0,0,0,8.21,2.47A15,15,0,0,0,85.06,39a15.46,15.46,0,0,0,4.82-3.25,15.28,15.28,0,0,0,3.24-4.8A14.77,14.77,0,0,0,94.31,25a15.54,15.54,0,0,0-2-7.72l8.14-5.48Z"/><polygon points="49.97 0 38.88 0 24.99 35.72 11.09 0 0 0 19.44 49.97 30.53 49.97 49.97 0"/></g></g></svg>